<svg id="svg" xmlns="http://www.w3.org/2000/svg" xmlns:xlink="http://www.w3.org/1999/xlink" width="4" height="4" viewBox="0, 0, 400,400" version="1.1"><g id="svgg"><path id="path0" d="M109.200 103.200 C 109.200 103.420,108.300 103.600,107.200 103.600 C 106.100 103.600,105.200 103.780,105.200 104.000 C 105.200 104.222,104.133 104.400,102.800 104.400 C 101.467 104.400,100.400 104.578,100.400 104.800 C 100.400 105.020,99.680 105.200,98.800 105.200 C 97.920 105.200,97.200 105.380,97.200 105.600 C 97.200 105.820,96.480 106.000,95.600 106.000 C 94.720 106.000,94.000 106.180,94.000 106.400 C 94.000 106.620,93.280 106.800,92.400 106.800 C 91.520 106.800,90.800 106.980,90.800 107.200 C 90.800 107.420,90.260 107.600,89.600 107.600 C 88.940 107.600,88.400 107.780,88.400 108.000 C 88.400 108.220,87.860 108.400,87.200 108.400 C 86.540 108.400,86.000 108.580,86.000 108.800 C 86.000 109.020,85.460 109.200,84.800 109.200 C 84.140 109.200,83.600 109.380,83.600 109.600 C 83.600 109.820,83.240 110.000,82.800 110.000 C 82.360 110.000,82.000 110.180,82.000 110.400 C 82.000 110.620,81.640 110.800,81.200 110.800 C 80.760 110.800,80.400 110.980,80.400 111.200 C 80.400 111.420,79.860 111.600,79.200 111.600 C 78.540 111.600,78.000 111.780,78.000 112.000 C 78.000 112.220,77.640 112.400,77.200 112.400 C 76.760 112.400,76.400 112.580,76.400 112.800 C 76.400 113.020,76.040 113.200,75.600 113.200 C 75.160 113.200,74.800 113.380,74.800 113.600 C 74.800 113.820,74.480 114.000,74.088 114.000 C 73.697 114.000,73.117 114.360,72.800 114.800 C 72.483 115.240,71.903 115.600,71.512 115.600 C 71.120 115.600,70.800 115.780,70.800 116.000 C 70.800 116.220,70.480 116.400,70.088 116.400 C 69.697 116.400,69.117 116.760,68.800 117.200 C 68.483 117.640,67.903 118.000,67.512 118.000 C 67.120 118.000,66.800 118.180,66.800 118.400 C 66.800 118.620,66.512 118.800,66.160 118.800 C 65.809 118.800,65.017 119.340,64.400 120.000 C 63.783 120.660,63.063 121.200,62.800 121.200 C 62.537 121.200,61.817 121.740,61.200 122.400 C 60.583 123.060,59.870 123.600,59.614 123.600 C 59.358 123.600,58.271 124.500,57.200 125.600 C 56.129 126.700,55.058 127.600,54.821 127.600 C 54.258 127.600,46.800 135.058,46.800 135.621 C 46.800 135.858,45.900 136.929,44.800 138.000 C 43.700 139.071,42.800 140.190,42.800 140.486 C 42.800 140.781,42.440 141.283,42.000 141.600 C 41.560 141.917,41.200 142.425,41.200 142.728 C 41.200 143.031,40.660 143.783,40.000 144.400 C 39.340 145.017,38.800 145.769,38.800 146.072 C 38.800 146.375,38.440 146.883,38.000 147.200 C 37.560 147.517,37.200 148.097,37.200 148.488 C 37.200 148.880,37.020 149.200,36.800 149.200 C 36.580 149.200,36.400 149.520,36.400 149.912 C 36.400 150.303,36.040 150.883,35.600 151.200 C 35.160 151.517,34.800 152.097,34.800 152.488 C 34.800 152.880,34.620 153.200,34.400 153.200 C 34.180 153.200,34.000 153.560,34.000 154.000 C 34.000 154.440,33.820 154.800,33.600 154.800 C 33.380 154.800,33.200 155.160,33.200 155.600 C 33.200 156.040,33.020 156.400,32.800 156.400 C 32.580 156.400,32.400 156.760,32.400 157.200 C 32.400 157.640,32.220 158.000,32.000 158.000 C 31.780 158.000,31.600 158.360,31.600 158.800 C 31.600 159.240,31.420 159.600,31.200 159.600 C 30.980 159.600,30.800 159.960,30.800 160.400 C 30.800 160.840,30.620 161.200,30.400 161.200 C 30.180 161.200,30.000 161.740,30.000 162.400 C 30.000 163.060,29.820 163.600,29.600 163.600 C 29.380 163.600,29.200 163.960,29.200 164.400 C 29.200 164.840,29.020 165.200,28.800 165.200 C 28.580 165.200,28.400 165.740,28.400 166.400 C 28.400 167.060,28.220 167.600,28.000 167.600 C 27.780 167.600,27.600 168.140,27.600 168.800 C 27.600 169.460,27.420 170.000,27.200 170.000 C 26.980 170.000,26.800 170.540,26.800 171.200 C 26.800 171.860,26.620 172.400,26.400 172.400 C 26.180 172.400,26.000 173.120,26.000 174.000 C 26.000 174.880,25.820 175.600,25.600 175.600 C 25.380 175.600,25.200 176.320,25.200 177.200 C 25.200 178.080,25.020 178.800,24.800 178.800 C 24.578 178.800,24.400 179.867,24.400 181.200 C 24.400 182.533,24.222 183.600,24.000 183.600 C 23.771 183.600,23.600 184.800,23.600 186.400 C 23.600 188.000,23.429 189.200,23.200 189.200 C 22.943 189.200,22.800 193.067,22.800 200.000 C 22.800 206.933,22.943 210.800,23.200 210.800 C 23.429 210.800,23.600 212.000,23.600 213.600 C 23.600 215.200,23.771 216.400,24.000 216.400 C 24.222 216.400,24.400 217.467,24.400 218.800 C 24.400 220.133,24.578 221.200,24.800 221.200 C 25.020 221.200,25.200 221.920,25.200 222.800 C 25.200 223.680,25.380 224.400,25.600 224.400 C 25.820 224.400,26.000 225.120,26.000 226.000 C 26.000 226.880,26.180 227.600,26.400 227.600 C 26.620 227.600,26.800 228.140,26.800 228.800 C 26.800 229.460,26.980 230.000,27.200 230.000 C 27.420 230.000,27.600 230.540,27.600 231.200 C 27.600 231.860,27.780 232.400,28.000 232.400 C 28.220 232.400,28.400 232.760,28.400 233.200 C 28.400 233.640,28.580 234.000,28.800 234.000 C 29.020 234.000,29.200 234.540,29.200 235.200 C 29.200 235.860,29.380 236.400,29.600 236.400 C 29.820 236.400,30.000 236.940,30.000 237.600 C 30.000 238.260,30.180 238.800,30.400 238.800 C 30.620 238.800,30.800 239.160,30.800 239.600 C 30.800 240.040,30.980 240.400,31.200 240.400 C 31.420 240.400,31.600 240.760,31.600 241.200 C 31.600 241.640,31.780 242.000,32.000 242.000 C 32.220 242.000,32.400 242.360,32.400 242.800 C 32.400 243.240,32.580 243.600,32.800 243.600 C 33.020 243.600,33.200 243.960,33.200 244.400 C 33.200 244.840,33.380 245.200,33.600 245.200 C 33.820 245.200,34.000 245.560,34.000 246.000 C 34.000 246.440,34.180 246.800,34.400 246.800 C 34.620 246.800,34.800 247.120,34.800 247.512 C 34.800 247.903,35.160 248.483,35.600 248.800 C 36.040 249.117,36.400 249.697,36.400 250.088 C 36.400 250.480,36.580 250.800,36.800 250.800 C 37.020 250.800,37.200 251.120,37.200 251.512 C 37.200 251.903,37.560 252.483,38.000 252.800 C 38.440 253.117,38.800 253.625,38.800 253.928 C 38.800 254.231,39.340 254.983,40.000 255.600 C 40.660 256.217,41.200 256.937,41.200 257.200 C 41.200 257.463,41.740 258.183,42.400 258.800 C 43.060 259.417,43.600 260.130,43.600 260.386 C 43.600 260.642,44.500 261.729,45.600 262.800 C 46.700 263.871,47.600 264.942,47.600 265.179 C 47.600 265.742,55.058 273.200,55.621 273.200 C 55.858 273.200,56.929 274.100,58.000 275.200 C 59.071 276.300,60.190 277.200,60.486 277.200 C 60.781 277.200,61.283 277.560,61.600 278.000 C 61.917 278.440,62.425 278.800,62.728 278.800 C 63.031 278.800,63.783 279.340,64.400 280.000 C 65.017 280.660,65.809 281.200,66.160 281.200 C 66.512 281.200,66.800 281.380,66.800 281.600 C 66.800 281.820,67.120 282.000,67.512 282.000 C 67.903 282.000,68.483 282.360,68.800 282.800 C 69.117 283.240,69.697 283.600,70.088 283.600 C 70.480 283.600,70.800 283.780,70.800 284.000 C 70.800 284.220,71.120 284.400,71.512 284.400 C 71.903 284.400,72.483 284.760,72.800 285.200 C 73.117 285.640,73.697 286.000,74.088 286.000 C 74.480 286.000,74.800 286.180,74.800 286.400 C 74.800 286.620,75.160 286.800,75.600 286.800 C 76.040 286.800,76.400 286.980,76.400 287.200 C 76.400 287.420,76.760 287.600,77.200 287.600 C 77.640 287.600,78.000 287.780,78.000 288.000 C 78.000 288.220,78.540 288.400,79.200 288.400 C 79.860 288.400,80.400 288.580,80.400 288.800 C 80.400 289.020,80.760 289.200,81.200 289.200 C 81.640 289.200,82.000 289.380,82.000 289.600 C 82.000 289.820,82.360 290.000,82.800 290.000 C 83.240 290.000,83.600 290.180,83.600 290.400 C 83.600 290.620,84.140 290.800,84.800 290.800 C 85.460 290.800,86.000 290.980,86.000 291.200 C 86.000 291.420,86.540 291.600,87.200 291.600 C 87.860 291.600,88.400 291.780,88.400 292.000 C 88.400 292.220,88.940 292.400,89.600 292.400 C 90.260 292.400,90.800 292.580,90.800 292.800 C 90.800 293.020,91.340 293.200,92.000 293.200 C 92.660 293.200,93.200 293.380,93.200 293.600 C 93.200 293.820,94.100 294.000,95.200 294.000 C 96.300 294.000,97.200 294.180,97.200 294.400 C 97.200 294.620,97.920 294.800,98.800 294.800 C 99.680 294.800,100.400 294.980,100.400 295.200 C 100.400 295.422,101.467 295.600,102.800 295.600 C 104.133 295.600,105.200 295.778,105.200 296.000 C 105.200 296.237,106.667 296.400,108.800 296.400 C 110.933 296.400,112.400 296.563,112.400 296.800 C 112.400 297.053,115.200 297.200,120.000 297.200 C 124.800 297.200,127.600 297.053,127.600 296.800 C 127.600 296.567,128.933 296.400,130.800 296.400 C 132.667 296.400,134.000 296.233,134.000 296.000 C 134.000 295.771,135.200 295.600,136.800 295.600 C 138.400 295.600,139.600 295.429,139.600 295.200 C 139.600 294.980,140.320 294.800,141.200 294.800 C 142.080 294.800,142.800 294.620,142.800 294.400 C 142.800 294.180,143.520 294.000,144.400 294.000 C 145.280 294.000,146.000 293.820,146.000 293.600 C 146.000 293.380,146.720 293.200,147.600 293.200 C 148.480 293.200,149.200 293.020,149.200 292.800 C 149.200 292.580,149.740 292.400,150.400 292.400 C 151.060 292.400,151.600 292.220,151.600 292.000 C 151.600 291.780,151.960 291.600,152.400 291.600 C 152.840 291.600,153.200 291.420,153.200 291.200 C 153.200 290.980,153.740 290.800,154.400 290.800 C 155.060 290.800,155.600 290.620,155.600 290.400 C 155.600 290.180,156.140 290.000,156.800 290.000 C 157.460 290.000,158.000 289.820,158.000 289.600 C 158.000 289.380,158.360 289.200,158.800 289.200 C 159.240 289.200,159.600 289.020,159.600 288.800 C 159.600 288.580,159.960 288.400,160.400 288.400 C 160.840 288.400,161.200 288.220,161.200 288.000 C 161.200 287.780,161.560 287.600,162.000 287.600 C 162.440 287.600,162.800 287.420,162.800 287.200 C 162.800 286.980,163.160 286.800,163.600 286.800 C 164.040 286.800,164.400 286.620,164.400 286.400 C 164.400 286.180,164.760 286.000,165.200 286.000 C 165.640 286.000,166.000 285.820,166.000 285.600 C 166.000 285.380,166.360 285.200,166.800 285.200 C 167.240 285.200,167.600 285.020,167.600 284.800 C 167.600 284.580,167.920 284.400,168.312 284.400 C 168.703 284.400,169.283 284.040,169.600 283.600 C 169.917 283.160,170.497 282.800,170.888 282.800 C 171.280 282.800,171.600 282.620,171.600 282.400 C 171.600 282.180,171.920 282.000,172.312 282.000 C 172.703 282.000,173.283 281.640,173.600 281.200 C 173.917 280.760,174.425 280.400,174.728 280.400 C 175.031 280.400,175.783 279.860,176.400 279.200 C 177.017 278.540,177.737 278.000,178.000 278.000 C 178.263 278.000,178.983 277.460,179.600 276.800 C 180.217 276.140,180.920 275.600,181.163 275.600 C 181.741 275.600,194.800 262.541,194.800 261.963 C 194.800 261.720,195.340 261.017,196.000 260.400 C 196.660 259.783,197.200 259.063,197.200 258.800 C 197.200 258.537,197.740 257.817,198.400 257.200 C 199.060 256.583,199.600 255.831,199.600 255.528 C 199.600 255.225,199.960 254.717,200.400 254.400 C 200.840 254.083,201.200 253.543,201.200 253.200 C 201.200 252.857,201.560 252.317,202.000 252.000 C 202.440 251.683,202.800 251.103,202.800 250.712 C 202.800 250.320,202.980 250.000,203.200 250.000 C 203.420 250.000,203.600 249.460,203.600 248.800 C 203.600 247.916,203.412 247.600,202.888 247.600 C 202.497 247.600,201.917 247.240,201.600 246.800 C 201.283 246.360,200.703 246.000,200.312 246.000 C 199.920 246.000,199.600 245.820,199.600 245.600 C 199.600 245.380,199.280 245.200,198.888 245.200 C 198.497 245.200,197.917 244.840,197.600 244.400 C 197.283 243.960,196.703 243.600,196.312 243.600 C 195.920 243.600,195.600 243.420,195.600 243.200 C 195.600 242.980,195.240 242.800,194.800 242.800 C 194.360 242.800,194.000 242.620,194.000 242.400 C 194.000 242.180,193.680 242.000,193.288 242.000 C 192.897 242.000,192.317 241.640,192.000 241.200 C 191.683 240.760,191.103 240.400,190.712 240.400 C 190.320 240.400,190.000 240.220,190.000 240.000 C 190.000 239.780,189.640 239.600,189.200 239.600 C 188.760 239.600,188.400 239.420,188.400 239.200 C 188.400 238.980,188.080 238.800,187.688 238.800 C 187.297 238.800,186.717 238.440,186.400 238.000 C 186.083 237.560,185.503 237.200,185.112 237.200 C 184.720 237.200,184.400 237.020,184.400 236.800 C 184.400 236.580,184.040 236.400,183.600 236.400 C 183.160 236.400,182.800 236.220,182.800 236.000 C 182.800 235.780,182.480 235.600,182.088 235.600 C 181.697 235.600,181.117 235.240,180.800 234.800 C 180.483 234.360,179.903 234.000,179.512 234.000 C 179.120 234.000,178.800 233.820,178.800 233.600 C 178.800 233.380,178.480 233.200,178.088 233.200 C 177.697 233.200,177.117 232.840,176.800 232.400 C 176.483 231.960,175.903 231.600,175.512 231.600 C 175.120 231.600,174.800 231.420,174.800 231.200 C 174.800 230.980,174.440 230.800,174.000 230.800 C 173.560 230.800,173.200 230.620,173.200 230.400 C 173.200 230.180,172.880 230.000,172.488 230.000 C 172.097 230.000,171.517 229.640,171.200 229.200 C 170.883 228.760,170.303 228.400,169.912 228.400 C 169.520 228.400,169.200 228.220,169.200 228.000 C 169.200 227.780,168.840 227.600,168.400 227.600 C 167.960 227.600,167.600 227.420,167.600 227.200 C 167.600 226.980,167.060 226.800,166.400 226.800 C 165.516 226.800,165.200 226.988,165.200 227.512 C 165.200 227.903,164.840 228.483,164.400 228.800 C 163.960 229.117,163.600 229.625,163.600 229.928 C 163.600 230.231,163.060 230.983,162.400 231.600 C 161.740 232.217,161.200 232.921,161.200 233.165 C 161.200 233.745,152.945 242.000,152.365 242.000 C 152.121 242.000,151.417 242.540,150.800 243.200 C 150.183 243.860,149.391 244.400,149.040 244.400 C 148.688 244.400,148.400 244.580,148.400 244.800 C 148.400 245.020,148.080 245.200,147.688 245.200 C 147.297 245.200,146.717 245.560,146.400 246.000 C 146.083 246.440,145.503 246.800,145.112 246.800 C 144.720 246.800,144.400 246.980,144.400 247.200 C 144.400 247.420,144.040 247.600,143.600 247.600 C 143.160 247.600,142.800 247.780,142.800 248.000 C 142.800 248.220,142.440 248.400,142.000 248.400 C 141.560 248.400,141.200 248.580,141.200 248.800 C 141.200 249.020,140.660 249.200,140.000 249.200 C 139.340 249.200,138.800 249.380,138.800 249.600 C 138.800 249.820,138.440 250.000,138.000 250.000 C 137.560 250.000,137.200 250.180,137.200 250.400 C 137.200 250.620,136.480 250.800,135.600 250.800 C 134.720 250.800,134.000 250.980,134.000 251.200 C 134.000 251.420,133.280 251.600,132.400 251.600 C 131.520 251.600,130.800 251.780,130.800 252.000 C 130.800 252.220,129.900 252.400,128.800 252.400 C 127.700 252.400,126.800 252.580,126.800 252.800 C 126.800 253.052,124.133 253.200,119.600 253.200 C 115.067 253.200,112.400 253.052,112.400 252.800 C 112.400 252.580,111.500 252.400,110.400 252.400 C 109.300 252.400,108.400 252.220,108.400 252.000 C 108.400 251.780,107.680 251.600,106.800 251.600 C 105.920 251.600,105.200 251.420,105.200 251.200 C 105.200 250.980,104.660 250.800,104.000 250.800 C 103.340 250.800,102.800 250.620,102.800 250.400 C 102.800 250.180,102.260 250.000,101.600 250.000 C 100.940 250.000,100.400 249.820,100.400 249.600 C 100.400 249.380,100.040 249.200,99.600 249.200 C 99.160 249.200,98.800 249.020,98.800 248.800 C 98.800 248.580,98.440 248.400,98.000 248.400 C 97.560 248.400,97.200 248.220,97.200 248.000 C 97.200 247.780,96.840 247.600,96.400 247.600 C 95.960 247.600,95.600 247.420,95.600 247.200 C 95.600 246.980,95.240 246.800,94.800 246.800 C 94.360 246.800,94.000 246.620,94.000 246.400 C 94.000 246.180,93.680 246.000,93.288 246.000 C 92.897 246.000,92.317 245.640,92.000 245.200 C 91.683 244.760,91.143 244.400,90.800 244.400 C 90.457 244.400,89.917 244.040,89.600 243.600 C 89.283 243.160,88.775 242.800,88.472 242.800 C 88.169 242.800,87.417 242.260,86.800 241.600 C 86.183 240.940,85.478 240.400,85.232 240.400 C 84.654 240.400,79.600 235.353,79.600 234.776 C 79.600 234.535,78.880 233.646,78.000 232.800 C 77.120 231.954,76.400 231.018,76.400 230.720 C 76.400 230.421,76.040 229.917,75.600 229.600 C 75.160 229.283,74.800 228.703,74.800 228.312 C 74.800 227.920,74.620 227.600,74.400 227.600 C 74.180 227.600,74.000 227.280,74.000 226.888 C 74.000 226.497,73.640 225.917,73.200 225.600 C 72.760 225.283,72.400 224.703,72.400 224.312 C 72.400 223.920,72.220 223.600,72.000 223.600 C 71.780 223.600,71.600 223.240,71.600 222.800 C 71.600 222.360,71.420 222.000,71.200 222.000 C 70.980 222.000,70.800 221.460,70.800 220.800 C 70.800 220.140,70.620 219.600,70.400 219.600 C 70.180 219.600,70.000 219.060,70.000 218.400 C 70.000 217.740,69.820 217.200,69.600 217.200 C 69.380 217.200,69.200 216.660,69.200 216.000 C 69.200 215.340,69.020 214.800,68.800 214.800 C 68.580 214.800,68.400 214.260,68.400 213.600 C 68.400 212.940,68.220 212.400,68.000 212.400 C 67.780 212.400,67.600 211.500,67.600 210.400 C 67.600 209.300,67.420 208.400,67.200 208.400 C 66.946 208.400,66.800 205.333,66.800 200.000 C 66.800 194.667,66.946 191.600,67.200 191.600 C 67.420 191.600,67.600 190.700,67.600 189.600 C 67.600 188.500,67.780 187.600,68.000 187.600 C 68.220 187.600,68.400 186.880,68.400 186.000 C 68.400 185.120,68.580 184.400,68.800 184.400 C 69.020 184.400,69.200 183.860,69.200 183.200 C 69.200 182.540,69.380 182.000,69.600 182.000 C 69.820 182.000,70.000 181.640,70.000 181.200 C 70.000 180.760,70.180 180.400,70.400 180.400 C 70.620 180.400,70.800 180.040,70.800 179.600 C 70.800 179.160,70.980 178.800,71.200 178.800 C 71.420 178.800,71.600 178.260,71.600 177.600 C 71.600 176.940,71.780 176.400,72.000 176.400 C 72.220 176.400,72.400 176.080,72.400 175.688 C 72.400 175.297,72.760 174.717,73.200 174.400 C 73.640 174.083,74.000 173.503,74.000 173.112 C 74.000 172.720,74.180 172.400,74.400 172.400 C 74.620 172.400,74.800 172.112,74.800 171.760 C 74.800 171.409,75.340 170.617,76.000 170.000 C 76.660 169.383,77.200 168.663,77.200 168.400 C 77.200 168.137,77.740 167.417,78.400 166.800 C 79.060 166.183,79.600 165.477,79.600 165.231 C 79.600 164.652,83.844 160.400,84.423 160.400 C 84.665 160.400,85.554 159.680,86.400 158.800 C 87.246 157.920,88.149 157.200,88.408 157.200 C 88.667 157.200,89.383 156.660,90.000 156.000 C 90.617 155.340,91.409 154.800,91.760 154.800 C 92.112 154.800,92.400 154.620,92.400 154.400 C 92.400 154.180,92.720 154.000,93.112 154.000 C 93.503 154.000,94.083 153.640,94.400 153.200 C 94.739 152.730,95.435 152.400,96.088 152.400 C 96.700 152.400,97.200 152.220,97.200 152.000 C 97.200 151.780,97.560 151.600,98.000 151.600 C 98.440 151.600,98.800 151.420,98.800 151.200 C 98.800 150.980,99.160 150.800,99.600 150.800 C 100.040 150.800,100.400 150.620,100.400 150.400 C 100.400 150.180,100.940 150.000,101.600 150.000 C 102.260 150.000,102.800 149.820,102.800 149.600 C 102.800 149.380,103.340 149.200,104.000 149.200 C 104.660 149.200,105.200 149.020,105.200 148.800 C 105.200 148.580,105.920 148.400,106.800 148.400 C 107.680 148.400,108.400 148.220,108.400 148.000 C 108.400 147.780,109.300 147.600,110.400 147.600 C 111.500 147.600,112.400 147.420,112.400 147.200 C 112.400 146.948,115.067 146.800,119.600 146.800 C 124.133 146.800,126.800 146.948,126.800 147.200 C 126.800 147.422,127.867 147.600,129.200 147.600 C 130.533 147.600,131.600 147.778,131.600 148.000 C 131.600 148.220,132.320 148.400,133.200 148.400 C 134.080 148.400,134.800 148.580,134.800 148.800 C 134.800 149.020,135.340 149.200,136.000 149.200 C 136.660 149.200,137.200 149.380,137.200 149.600 C 137.200 149.820,137.560 150.000,138.000 150.000 C 138.440 150.000,138.800 150.180,138.800 150.400 C 138.800 150.620,139.340 150.800,140.000 150.800 C 140.660 150.800,141.200 150.980,141.200 151.200 C 141.200 151.420,141.560 151.600,142.000 151.600 C 142.440 151.600,142.800 151.780,142.800 152.000 C 142.800 152.220,143.160 152.400,143.600 152.400 C 144.040 152.400,144.400 152.580,144.400 152.800 C 144.400 153.020,144.720 153.200,145.112 153.200 C 145.503 153.200,146.083 153.560,146.400 154.000 C 146.717 154.440,147.297 154.800,147.688 154.800 C 148.080 154.800,148.400 154.980,148.400 155.200 C 148.400 155.420,148.688 155.600,149.040 155.600 C 149.391 155.600,150.183 156.140,150.800 156.800 C 151.417 157.460,152.121 158.000,152.365 158.000 C 152.989 158.000,162.000 167.079,162.000 167.707 C 162.000 167.991,162.360 168.483,162.800 168.800 C 163.240 169.117,163.600 169.657,163.600 170.000 C 163.600 170.343,163.960 170.883,164.400 171.200 C 164.840 171.517,165.200 172.097,165.200 172.488 C 165.200 173.012,165.516 173.200,166.400 173.200 C 167.060 173.200,167.600 173.020,167.600 172.800 C 167.600 172.580,167.960 172.400,168.400 172.400 C 168.840 172.400,169.200 172.220,169.200 172.000 C 169.200 171.780,169.520 171.600,169.912 171.600 C 170.303 171.600,170.883 171.240,171.200 170.800 C 171.517 170.360,172.097 170.000,172.488 170.000 C 172.880 170.000,173.200 169.820,173.200 169.600 C 173.200 169.380,173.560 169.200,174.000 169.200 C 174.440 169.200,174.800 169.020,174.800 168.800 C 174.800 168.580,175.120 168.400,175.512 168.400 C 175.903 168.400,176.483 168.040,176.800 167.600 C 177.117 167.160,177.697 166.800,178.088 166.800 C 178.480 166.800,178.800 166.620,178.800 166.400 C 178.800 166.180,179.120 166.000,179.512 166.000 C 179.903 166.000,180.483 165.640,180.800 165.200 C 181.117 164.760,181.697 164.400,182.088 164.400 C 182.480 164.400,182.800 164.220,182.800 164.000 C 182.800 163.780,183.160 163.600,183.600 163.600 C 184.040 163.600,184.400 163.420,184.400 163.200 C 184.400 162.980,184.720 162.800,185.112 162.800 C 185.503 162.800,186.083 162.440,186.400 162.000 C 186.717 161.560,187.297 161.200,187.688 161.200 C 188.080 161.200,188.400 161.020,188.400 160.800 C 188.400 160.580,188.760 160.400,189.200 160.400 C 189.640 160.400,190.000 160.220,190.000 160.000 C 190.000 159.780,190.320 159.600,190.712 159.600 C 191.103 159.600,191.683 159.240,192.000 158.800 C 192.317 158.360,192.897 158.000,193.288 158.000 C 193.680 158.000,194.000 157.820,194.000 157.600 C 194.000 157.380,194.360 157.200,194.800 157.200 C 195.240 157.200,195.600 157.020,195.600 156.800 C 195.600 156.580,195.920 156.400,196.312 156.400 C 196.703 156.400,197.283 156.040,197.600 155.600 C 197.917 155.160,198.497 154.800,198.888 154.800 C 199.280 154.800,199.600 154.620,199.600 154.400 C 199.600 154.180,199.920 154.000,200.312 154.000 C 200.703 154.000,201.283 153.640,201.600 153.200 C 201.917 152.760,202.497 152.400,202.888 152.400 C 203.412 152.400,203.600 152.084,203.600 151.200 C 203.600 150.540,203.420 150.000,203.200 150.000 C 202.980 150.000,202.800 149.680,202.800 149.288 C 202.800 148.897,202.440 148.317,202.000 148.000 C 201.560 147.683,201.200 147.143,201.200 146.800 C 201.200 146.457,200.840 145.917,200.400 145.600 C 199.960 145.283,199.600 144.775,199.600 144.472 C 199.600 144.169,199.060 143.417,198.400 142.800 C 197.740 142.183,197.200 141.431,197.200 141.128 C 197.200 140.825,196.840 140.317,196.400 140.000 C 195.960 139.683,195.600 139.192,195.600 138.909 C 195.600 138.283,181.787 124.400,181.163 124.400 C 180.920 124.400,180.217 123.860,179.600 123.200 C 178.983 122.540,178.263 122.000,178.000 122.000 C 177.737 122.000,177.017 121.460,176.400 120.800 C 175.783 120.140,175.031 119.600,174.728 119.600 C 174.425 119.600,173.917 119.240,173.600 118.800 C 173.283 118.360,172.703 118.000,172.312 118.000 C 171.920 118.000,171.600 117.820,171.600 117.600 C 171.600 117.380,171.280 117.200,170.888 117.200 C 170.497 117.200,169.917 116.840,169.600 116.400 C 169.283 115.960,168.703 115.600,168.312 115.600 C 167.920 115.600,167.600 115.420,167.600 115.200 C 167.600 114.980,167.240 114.800,166.800 114.800 C 166.360 114.800,166.000 114.620,166.000 114.400 C 166.000 114.180,165.640 114.000,165.200 114.000 C 164.760 114.000,164.400 113.820,164.400 113.600 C 164.400 113.380,164.040 113.200,163.600 113.200 C 163.160 113.200,162.800 113.020,162.800 112.800 C 162.800 112.580,162.440 112.400,162.000 112.400 C 161.560 112.400,161.200 112.220,161.200 112.000 C 161.200 111.780,160.840 111.600,160.400 111.600 C 159.960 111.600,159.600 111.420,159.600 111.200 C 159.600 110.980,159.240 110.800,158.800 110.800 C 158.360 110.800,158.000 110.620,158.000 110.400 C 158.000 110.180,157.460 110.000,156.800 110.000 C 156.140 110.000,155.600 109.820,155.600 109.600 C 155.600 109.380,155.060 109.200,154.400 109.200 C 153.740 109.200,153.200 109.020,153.200 108.800 C 153.200 108.580,152.660 108.400,152.000 108.400 C 151.340 108.400,150.800 108.220,150.800 108.000 C 150.800 107.780,150.260 107.600,149.600 107.600 C 148.940 107.600,148.400 107.420,148.400 107.200 C 148.400 106.980,147.860 106.800,147.200 106.800 C 146.540 106.800,146.000 106.620,146.000 106.400 C 146.000 106.180,145.280 106.000,144.400 106.000 C 143.520 106.000,142.800 105.820,142.800 105.600 C 142.800 105.380,142.080 105.200,141.200 105.200 C 140.320 105.200,139.600 105.020,139.600 104.800 C 139.600 104.578,138.533 104.400,137.200 104.400 C 135.867 104.400,134.800 104.222,134.800 104.000 C 134.800 103.778,133.733 103.600,132.400 103.600 C 131.067 103.600,130.000 103.422,130.000 103.200 C 130.000 102.944,126.267 102.800,119.600 102.800 C 112.933 102.800,109.200 102.944,109.200 103.200 M178.800 200.000 L 178.800 220.400 219.200 220.400 L 259.600 220.400 259.600 258.800 L 259.600 297.200 279.600 297.200 L 299.600 297.200 299.600 258.800 L 299.600 220.400 316.400 220.400 L 333.200 220.400 333.200 258.800 L 333.200 297.200 353.200 297.200 L 373.200 297.200 373.200 238.400 L 373.200 179.600 276.000 179.600 L 178.800 179.600 178.800 200.000 " stroke="none" fill="#34fc34" fill-rule="evenodd"></path><path id="path1" d="" stroke="none" fill="#000000" fill-rule="evenodd"></path></g></svg>